# xmcd CD database file
#
# Track frame offsets:
#	150
#	11213
#	28800
#	49301
#	84040
#	94755
#	119372
#	159623
#	180896
#	194815
#	225014
#	241929
#	268859
#	299662
#	312556
#
# Disc length: 4528 seconds
#
# Revision: 0
# Processed by: cddbd v1.5.2PL0 Copyright (c) Steve Scherf et al.
# Submitted via: CDex 1.70beta2
#
DISCID=cc11ae0f
DTITLE=Jaco Pastorius - The Essential Jaco Pastorius [CD1]
DYEAR=2007
DGENRE=Jazz
TTITLE0=Donna Lee
TTITLE1=Come On, Come Over
TTITLE2=Continuum
TTITLE3=Kuru/Speak Like A Child
TTITLE4=Portrait Of Tracy
TTITLE5=Opus Pocus
TTITLE6=(Used To Be A) Cha-Cha
TTITLE7=Bright Size Life
TTITLE8=Barbary Coast
TTITLE9=Hejira
TTITLE10=Talk To Me
TTITLE11=Birdland
TTITLE12=A Remark You Made
TTITLE13=Teen Town
TTITLE14=Havona
EXTD=YEAR: 2007
EXTT0=
EXTT1=
EXTT2=
EXTT3=
EXTT4=
EXTT5=
EXTT6=
EXTT7=
EXTT8=
EXTT9=
EXTT10=
EXTT11=
EXTT12=
EXTT13=
EXTT14=
PLAYORDER=
